<?xml version="1.0" encoding="utf-8"?><svg viewBox="0 0 1440 500" xmlns="http://www.w3.org/2000/svg">
    <g fill="#e5e5e6">
        <path
            d="m99 92h-108a2 2 0 0 1 -2-2 2 2 0 0 1 2-2h106v-14h-106a2 2 0 0 1 -2-2 2 2 0 0 1 2-2h108a2 2 0 0 1 2 2v18a2 2 0 0 1 -2 2z" />
        <path d="m126 110h-27a2 2 0 0 1 -2-2v-54a2 2 0 0 1 2-2h27a2 2 0 0 1 2 2v54a2 2 0 0 1 -2 2zm-25-4h23v-50h-23z" />
        <path
            d="m1206 281h-99a2 2 0 0 1 -2-2v-18a2 2 0 0 1 2-2h99a2 2 0 0 1 2 2v18a2 2 0 0 1 -2 2zm-97-4h95v-14h-95z" />
        <path
            d="m1233 299h-18a2 2 0 0 1 -2-2v-16h-7a2 2 0 0 1 -2-2v-18a2 2 0 0 1 2-2h7v-25a2 2 0 0 1 1.23-1.85 2 2 0 0 1 2.18.44c11.64 11.63 18.59 36.52 18.59 53.87v10.54a2 2 0 0 1 -2 2zm-16-4h14v-8.54c0-18.25-6.65-36.78-14-47v21.54a2 2 0 0 1 -2 2h-7v14h7a2 2 0 0 1 2 2z" />
        <path d="m45 344h-18a2 2 0 0 1 -2-2v-18a2 2 0 0 1 2-2h18a2 2 0 0 1 2 2v18a2 2 0 0 1 -2 2zm-16-4h14v-14h-14z" />
        <path d="m117 344h-18a2 2 0 0 1 -2-2v-18a2 2 0 0 1 2-2h18a2 2 0 0 1 2 2v18a2 2 0 0 1 -2 2zm-16-4h14v-14h-14z" />
        <path d="m45 380h-18a2 2 0 0 1 -2-2v-18a2 2 0 0 1 2-2h18a2 2 0 0 1 2 2v18a2 2 0 0 1 -2 2zm-16-4h14v-14h-14z" />
        <path d="m117 380h-18a2 2 0 0 1 -2-2v-18a2 2 0 0 1 2-2h18a2 2 0 0 1 2 2v18a2 2 0 0 1 -2 2zm-16-4h14v-14h-14z" />
        <path d="m45 416h-18a2 2 0 0 1 -2-2v-18a2 2 0 0 1 2-2h18a2 2 0 0 1 2 2v18a2 2 0 0 1 -2 2zm-16-4h14v-14h-14z" />
        <path d="m117 416h-18a2 2 0 0 1 -2-2v-18a2 2 0 0 1 2-2h18a2 2 0 0 1 2 2v18a2 2 0 0 1 -2 2zm-16-4h14v-14h-14z" />
        <path d="m27 425h-9a2 2 0 0 1 -2-2v-9a2 2 0 0 1 2-2h9a2 2 0 0 1 2 2v9a2 2 0 0 1 -2 2zm-7-4h5v-5h-5z" />
        <path d="m27 326h-9a2 2 0 0 1 -2-2v-9a2 2 0 0 1 2-2h9a2 2 0 0 1 2 2v9a2 2 0 0 1 -2 2zm-7-4h5v-5h-5z" />
        <path d="m126 425h-9a2 2 0 0 1 -2-2v-9a2 2 0 0 1 2-2h9a2 2 0 0 1 2 2v9a2 2 0 0 1 -2 2zm-7-4h5v-5h-5z" />
        <path d="m126 326h-9a2 2 0 0 1 -2-2v-9a2 2 0 0 1 2-2h9a2 2 0 0 1 2 2v9a2 2 0 0 1 -2 2zm-7-4h5v-5h-5z" />
        <path d="m27 362h-9a2 2 0 0 1 -2-2v-9a2 2 0 0 1 2-2h9a2 2 0 0 1 2 2v9a2 2 0 0 1 -2 2zm-7-4h5v-5h-5z" />
        <path d="m27 389h-9a2 2 0 0 1 -2-2v-9a2 2 0 0 1 2-2h9a2 2 0 0 1 2 2v9a2 2 0 0 1 -2 2zm-7-4h5v-5h-5z" />
        <path d="m126 362h-9a2 2 0 0 1 -2-2v-9a2 2 0 0 1 2-2h9a2 2 0 0 1 2 2v9a2 2 0 0 1 -2 2zm-7-4h5v-5h-5z" />
        <path d="m126 389h-9a2 2 0 0 1 -2-2v-9a2 2 0 0 1 2-2h9a2 2 0 0 1 2 2v9a2 2 0 0 1 -2 2zm-7-4h5v-5h-5z" />
        <path d="m81 344h-18a2 2 0 0 1 -2-2v-18a2 2 0 0 1 2-2h18a2 2 0 0 1 2 2v18a2 2 0 0 1 -2 2zm-16-4h14v-14h-14z" />
        <path d="m81 416h-18a2 2 0 0 1 -2-2v-18a2 2 0 0 1 2-2h18a2 2 0 0 1 2 2v18a2 2 0 0 1 -2 2zm-16-4h14v-14h-14z" />
        <path d="m63 326h-9a2 2 0 0 1 -2-2v-9a2 2 0 0 1 2-2h9a2 2 0 0 1 2 2v9a2 2 0 0 1 -2 2zm-7-4h5v-5h-5z" />
        <path d="m90 326h-9a2 2 0 0 1 -2-2v-9a2 2 0 0 1 2-2h9a2 2 0 0 1 2 2v9a2 2 0 0 1 -2 2zm-7-4h5v-5h-5z" />
        <path d="m63 425h-9a2 2 0 0 1 -2-2v-9a2 2 0 0 1 2-2h9a2 2 0 0 1 2 2v9a2 2 0 0 1 -2 2zm-7-4h5v-5h-5z" />
        <path d="m90 425h-9a2 2 0 0 1 -2-2v-9a2 2 0 0 1 2-2h9a2 2 0 0 1 2 2v9a2 2 0 0 1 -2 2zm-7-4h5v-5h-5z" />
        <path d="m99 398h-54a2 2 0 0 1 -2-2v-54a2 2 0 0 1 2-2h54a2 2 0 0 1 2 2v54a2 2 0 0 1 -2 2zm-52-4h50v-50h-50z" />
        <path d="m252 78.5h-54a2 2 0 0 1 0-4h54a2 2 0 0 1 0 4z" />
        <path d="m252 96.5h-45a2 2 0 0 1 0-4h45a2 2 0 0 1 0 4z" />
        <path d="m252 114.5h-45a2 2 0 0 1 0-4h45a2 2 0 0 1 0 4z" />
        <path
            d="m180 78.5a2 2 0 0 1 -2-2 1.72 1.72 0 0 1 0-.39 2.72 2.72 0 0 1 .11-.38 2.27 2.27 0 0 1 .19-.34 1.76 1.76 0 0 1 .24-.3 2.06 2.06 0 0 1 2.83 0 1.42 1.42 0 0 1 .25.3 2.27 2.27 0 0 1 .19.34 1.82 1.82 0 0 1 .11.38 1.72 1.72 0 0 1 0 .39 2 2 0 0 1 -2 2z" />
        <path
            d="m180 96.5a2 2 0 0 1 -2-2 1.72 1.72 0 0 1 0-.39 1.82 1.82 0 0 1 .11-.38 1.63 1.63 0 0 1 .19-.34 1.79 1.79 0 0 1 .25-.31 2.08 2.08 0 0 1 2.83 0 2.34 2.34 0 0 1 .24.31 1.63 1.63 0 0 1 .19.34 1.82 1.82 0 0 1 .11.38 1.72 1.72 0 0 1 0 .39 2 2 0 0 1 -2 2z" />
        <path
            d="m180 114.5a1.72 1.72 0 0 1 -.39 0 2.72 2.72 0 0 1 -.38-.11 2.27 2.27 0 0 1 -.34-.19 1.76 1.76 0 0 1 -.3-.24 2 2 0 0 1 -.59-1.42 1.72 1.72 0 0 1 0-.39 2.26 2.26 0 0 1 .11-.37 2 2 0 0 1 .19-.35 1.79 1.79 0 0 1 .25-.31 1.76 1.76 0 0 1 .3-.24 2.27 2.27 0 0 1 .34-.19 2.72 2.72 0 0 1 .38-.11 2 2 0 0 1 1.8.54 1.79 1.79 0 0 1 .25.31 2 2 0 0 1 .19.35 1.58 1.58 0 0 1 .11.37 1.72 1.72 0 0 1 0 .39 2 2 0 0 1 -2 2z" />
        <path
            d="m270 128a2 2 0 0 1 -2-2v-71.17l-34.83-34.83h-69.17v106a2 2 0 0 1 -2 2h-81a2 2 0 0 1 0-4h79v-106a2 2 0 0 1 2-2h72a2 2 0 0 1 1.41.59l36 36a2 2 0 0 1 .59 1.41v72a2 2 0 0 1 -2 2z" />
        <path
            d="m270 56h-36a2 2 0 0 1 -2-2v-36a2 2 0 0 1 1.23-1.85 2 2 0 0 1 2.18.44l36 36a2 2 0 0 1 .44 2.18 2 2 0 0 1 -1.85 1.23zm-34-4h29.17l-29.17-29.17z" />
        <path
            d="m182.19 52.61a1.23 1.23 0 0 1 -1.35 1.39c-3.07 0-5.06-1.75-5.06-4.38v-4.48a1.89 1.89 0 0 0 -1-1.6 1.62 1.62 0 0 1 0-2.8 1.9 1.9 0 0 0 1-1.62v-4.77c0-2.62 2-4.35 5.06-4.35a1.25 1.25 0 0 1 1.35 1.39 1.21 1.21 0 0 1 -1.35 1.32 1.77 1.77 0 0 0 -1.88 1.9v4.47a3.31 3.31 0 0 1 -2 3.05 3.32 3.32 0 0 1 2 3.08v4.18a1.77 1.77 0 0 0 1.88 1.88 1.22 1.22 0 0 1 1.35 1.34z" />
        <path
            d="m190.12 50.56.58-3.77a1.31 1.31 0 0 1 1.73-1.26 1.28 1.28 0 0 1 1.06 1.86l-1.1 3.69a1.17 1.17 0 0 1 -2.27-.52zm.52-12.68v-.23a1.64 1.64 0 0 1 3.27 0v.23a1.64 1.64 0 0 1 -3.27 0z" />
        <path
            d="m210 42.13a1.69 1.69 0 0 1 -.8 1.41 1.89 1.89 0 0 0 -1 1.6v4.48c0 2.63-2 4.38-5.06 4.38a1.23 1.23 0 0 1 -1.35-1.39 1.22 1.22 0 0 1 1.35-1.34 1.77 1.77 0 0 0 1.86-1.88v-4.18a3.32 3.32 0 0 1 2-3.08 3.31 3.31 0 0 1 -2-3.05v-4.47a1.78 1.78 0 0 0 -1.88-1.9 1.21 1.21 0 0 1 -1.35-1.32 1.25 1.25 0 0 1 1.39-1.39c3.05 0 5.06 1.73 5.06 4.35v4.77a1.9 1.9 0 0 0 1 1.62 1.68 1.68 0 0 1 .78 1.39z" />
        <path
            d="m1379.71 341.23a2 2 0 0 1 -1.9-1.37l-7.49-22.47a2 2 0 0 1 .11-1.53 2 2 0 0 1 1.15-1 9.84 9.84 0 1 0 -6.22 0 2 2 0 0 1 1.16 1 2 2 0 0 1 .11 1.53l-7.49 22.47a2 2 0 0 1 -2.53 1.26 37.53 37.53 0 1 1 23.73 0 1.74 1.74 0 0 1 -.63.11zm-11.24-69.23a33.53 33.53 0 0 0 -12.47 64.64l6.26-18.76a13.85 13.85 0 1 1 12.45 0l6.25 18.76a33.52 33.52 0 0 0 -12.49-64.64z" />
        <path
            d="m1080 407a2 2 0 0 1 -.89-.21l-54-27a2 2 0 0 1 0-3.58l54-27a2 2 0 0 1 1.78 0l54 27a2 2 0 0 1 0 3.58l-54 27a2 2 0 0 1 -.89.21zm-49.53-29 49.53 24.76 49.53-24.76-49.53-24.76z" />
        <path
            d="m1080 443a2 2 0 0 1 -.89-.21l-54-27a2 2 0 0 1 0-3.58l54-27a2 2 0 0 1 1.78 0l54 27a2 2 0 0 1 -1.78 3.58l-53.11-26.55-49.53 24.76 50.42 25.21a2 2 0 0 1 -.89 3.79z" />
        <path
            d="m1080 425a2 2 0 0 1 -.89-.21l-54-27a2 2 0 0 1 0-3.58l54-27a2 2 0 0 1 1.78 0l54 27a2 2 0 0 1 0 3.58l-54 27a2 2 0 0 1 -.89.21zm-49.53-29 49.53 24.76 49.53-24.76-49.53-24.76z" />
        <path d="m333 146h-126a2 2 0 0 1 0-4h126a2 2 0 0 1 0 4z" />
        <path
            d="m333 155a2 2 0 0 1 -1.41-3.41l7.58-7.59-7.58-7.59a2 2 0 0 1 2.82-2.82l9 9a2 2 0 0 1 0 2.82l-9 9a2 2 0 0 1 -1.41.59z" />
        <path d="m333 182h-36a2 2 0 0 1 0-4h36a2 2 0 0 1 0 4z" />
        <path
            d="m333 191a2 2 0 0 1 -1.41-3.41l7.58-7.59-7.58-7.59a2 2 0 0 1 2.82-2.82l9 9a2 2 0 0 1 0 2.82l-9 9a2 2 0 0 1 -1.41.59z" />
        <path d="m324 164h-81a2 2 0 0 1 0-4h81a2 2 0 0 1 0 4z" />
        <path
            d="m243 173a2 2 0 0 1 -1.41-.59l-9-9a2 2 0 0 1 0-2.82l9-9a2 2 0 0 1 2.82 2.82l-7.58 7.59 7.58 7.59a2 2 0 0 1 -1.41 3.41z" />
        <path
            d="m27 128a2 2 0 0 1 -1.41-.59l-7.59-7.58-7.59 7.58a2 2 0 0 1 -2.82-2.82l9-9a2 2 0 0 1 2.82 0l9 9a2 2 0 0 1 -1.41 3.41z" />
        <path d="m54 317a2 2 0 0 1 -2-2v-189a2 2 0 0 1 4 0v189a2 2 0 0 1 -2 2z" />
        <path
            d="m63 128a2 2 0 0 1 -1.41-.59l-7.59-7.58-7.59 7.58a2 2 0 0 1 -2.82-2.82l9-9a2 2 0 0 1 2.82 0l9 9a2 2 0 0 1 -1.41 3.41z" />
        <path d="m36 245a2 2 0 0 1 -2-2v-108a2 2 0 0 1 4 0v108a2 2 0 0 1 -2 2z" />
        <path
            d="m36 254a2 2 0 0 1 -1.41-.59l-9-9a2 2 0 0 1 2.82-2.82l7.59 7.58 7.59-7.58a2 2 0 0 1 2.82 2.82l-9 9a2 2 0 0 1 -1.41.59z" />
        <path
            d="m1376 65c-7.14 0-11-12.62-11-24.5s3.86-24.5 11-24.5 11 12.62 11 24.5-3.86 24.5-11 24.5zm0-45c-2.85 0-7 8-7 20.5s4.15 20.5 7 20.5 7-8 7-20.5-4.15-20.5-7-20.5z" />
        <path
            d="m1367 65c-7.14 0-11-12.62-11-24.5s3.86-24.5 11-24.5a2 2 0 0 1 0 4c-2.85 0-7 8-7 20.5s4.15 20.5 7 20.5a2 2 0 0 1 0 4z" />
        <path
            d="m1358 65c-7.14 0-11-12.62-11-24.5s3.86-24.5 11-24.5a2 2 0 0 1 0 4c-2.85 0-7 8-7 20.5s4.15 20.5 7 20.5a2 2 0 0 1 0 4z" />
        <path d="m1395 38a2 2 0 0 1 -1.41-3.41l9-9a2 2 0 0 1 2.82 2.82l-9 9a2 2 0 0 1 -1.41.59z" />
        <path d="m1404 56a2 2 0 0 1 -1.41-.59l-9-9a2 2 0 0 1 2.82-2.82l9 9a2 2 0 0 1 -1.41 3.41z" />
        <path d="m1404 42.5h-4.5a2 2 0 0 1 0-4h4.5a2 2 0 0 1 0 4z" />
        <path d="m1341 38a2 2 0 0 1 -1.41-.59l-9-9a2 2 0 0 1 2.82-2.82l9 9a2 2 0 0 1 -1.41 3.41z" />
        <path d="m1332 56a2 2 0 0 1 -1.41-3.41l9-9a2 2 0 0 1 2.82 2.82l-9 9a2 2 0 0 1 -1.41.59z" />
        <path d="m1336.5 42.5h-4.5a2 2 0 0 1 0-4h4.5a2 2 0 0 1 0 4z" />
        <path d="m1224 164a20 20 0 1 1 20-20 20 20 0 0 1 -20 20zm0-36a16 16 0 1 0 16 16 16 16 0 0 0 -16-16z" />
        <path d="m1233 137a2 2 0 0 1 -1.41-3.41l27-27a2 2 0 0 1 2.82 2.82l-27 27a2 2 0 0 1 -1.41.59z" />
        <path d="m1260 119a2 2 0 0 1 -2-2v-7h-7a2 2 0 0 1 0-4h9a2 2 0 0 1 2 2v9a2 2 0 0 1 -2 2z" />
        <path d="m1215 137a2 2 0 0 1 -1.41-.59l-27-27a2 2 0 0 1 2.82-2.82l27 27a2 2 0 0 1 -1.41 3.41z" />
        <path d="m1188 119a2 2 0 0 1 -2-2v-9a2 2 0 0 1 2-2h9a2 2 0 0 1 0 4h-7v7a2 2 0 0 1 -2 2z" />
        <path d="m1260 182a2 2 0 0 1 -1.41-.59l-27-27a2 2 0 0 1 2.82-2.82l27 27a2 2 0 0 1 -1.41 3.41z" />
        <path d="m1260 182h-9a2 2 0 0 1 0-4h7v-7a2 2 0 0 1 4 0v9a2 2 0 0 1 -2 2z" />
        <path d="m1188 182a2 2 0 0 1 -1.41-3.41l27-27a2 2 0 0 1 2.82 2.82l-27 27a2 2 0 0 1 -1.41.59z" />
        <path d="m1197 182h-9a2 2 0 0 1 -2-2v-9a2 2 0 0 1 4 0v7h7a2 2 0 0 1 0 4z" />
        <path d="m1274.91 146h-38.18a2 2 0 0 1 0-4h38.18a2 2 0 0 1 0 4z" />
        <path
            d="m1268.55 152.36a2 2 0 0 1 -1.42-3.41l4.95-4.95-4.95-4.95a2 2 0 1 1 2.83-2.83l6.37 6.37a2 2 0 0 1 0 2.82l-6.37 6.37a2 2 0 0 1 -1.41.58z" />
        <path d="m1211.18 146h-38.18a2 2 0 0 1 0-4h38.18a2 2 0 0 1 0 4z" />
        <path
            d="m1179.36 152.36a2 2 0 0 1 -1.41-.58l-6.36-6.37a2 2 0 0 1 0-2.82l6.36-6.37a2 2 0 1 1 2.83 2.83l-5 4.95 5 4.95a2 2 0 0 1 -1.42 3.41z" />
        <path d="m1224 133.27a2 2 0 0 1 -2-2v-38.18a2 2 0 1 1 4 0v38.18a2 2 0 0 1 -2 2z" />
        <path
            d="m1230.36 101.45a2 2 0 0 1 -1.41-.58l-5-5-5 5a2 2 0 1 1 -2.83-2.83l6.37-6.37a2 2 0 0 1 2.82 0l6.37 6.37a2 2 0 0 1 -1.42 3.41z" />
        <path
            d="m1449 236h-178.91a47.74 47.74 0 0 1 -34-14.09c-9.35-9.34-14.09-20.42-14.09-32.91v-18a2 2 0 0 1 4 0v18c0 11.39 4.34 21.52 12.91 30.09a43.84 43.84 0 0 0 31.18 12.91h178.91a2 2 0 0 1 0 4z" />
        <path
            d="m1278 110h-9a2 2 0 0 1 0-4h7v-14h-14v7a2 2 0 0 1 -4 0v-9a2 2 0 0 1 2-2h18a2 2 0 0 1 2 2v18a2 2 0 0 1 -2 2z" />
        <path
            d="m1179 110h-9a2 2 0 0 1 -2-2v-18a2 2 0 0 1 2-2h18a2 2 0 0 1 2 2v9a2 2 0 0 1 -4 0v-7h-14v14h7a2 2 0 0 1 0 4z" />
        <path
            d="m1278 200h-18a2 2 0 0 1 -2-2v-9a2 2 0 0 1 4 0v7h14v-14h-7a2 2 0 0 1 0-4h9a2 2 0 0 1 2 2v18a2 2 0 0 1 -2 2z" />
        <path
            d="m1188 200h-18a2 2 0 0 1 -2-2v-18a2 2 0 0 1 2-2h9a2 2 0 0 1 0 4h-7v14h14v-7a2 2 0 0 1 4 0v9a2 2 0 0 1 -2 2z" />
        <path
            d="m279 245.75a2 2 0 0 1 -2-2v-13.5a2.5 2.5 0 0 0 -5 0v13.5a2 2 0 0 1 -4 0v-13.5a6.5 6.5 0 0 1 13 0v13.5a2 2 0 0 1 -2 2z" />
        <path
            d="m288 250.25a2 2 0 0 1 -2-2v-18a2.5 2.5 0 0 0 -5 0v13.5a2 2 0 0 1 -4 0v-13.5a6.5 6.5 0 0 1 13 0v18a2 2 0 0 1 -2 2z" />
        <path
            d="m292.5 254.75a6.51 6.51 0 0 1 -6.5-6.5v-18a6.5 6.5 0 0 1 13 0v18a6.51 6.51 0 0 1 -6.5 6.5zm0-27a2.5 2.5 0 0 0 -2.5 2.5v18a2.5 2.5 0 0 0 5 0v-18a2.5 2.5 0 0 0 -2.5-2.5z" />
        <path
            d="m301.5 254.75a6.51 6.51 0 0 1 -6.5-6.5v-18a6.5 6.5 0 0 1 13 0v18a6.51 6.51 0 0 1 -6.5 6.5zm0-27a2.5 2.5 0 0 0 -2.5 2.5v18a2.5 2.5 0 0 0 5 0v-18a2.5 2.5 0 0 0 -2.5-2.5z" />
        <path d="m288 263.75a2 2 0 0 1 -2-2c0-3.31-6.56-7-11-7a2 2 0 0 1 0-4c5.9 0 15 4.72 15 11a2 2 0 0 1 -2 2z" />
        <path
            d="m297 308a2 2 0 0 1 -2-2v-37.13a2 2 0 0 1 1.19-1.83 20.5 20.5 0 0 0 8.21-31.04 2 2 0 0 1 3.2-2.4 24.49 24.49 0 0 1 -8.6 36.58v35.82a2 2 0 0 1 -2 2z" />
        <path
            d="m279 308a2 2 0 0 1 -2-2v-35.74a22.79 22.79 0 0 1 -6.36-4.73c-2.43-2.56-5.08-6.82-7.87-12.67a7.75 7.75 0 0 1 7-11.11h14.13a6.09 6.09 0 0 1 5.09 2.74 2 2 0 0 1 -3.34 2.21 2.08 2.08 0 0 0 -1.75-.95h-14.15a3.68 3.68 0 0 0 -3.17 1.74 3.72 3.72 0 0 0 -.21 3.64c2.59 5.4 5.06 9.43 7.17 11.65a19 19 0 0 0 6.26 4.38 2 2 0 0 1 1.2 1.84v37a2 2 0 0 1 -2 2z" />
        <path
            d="m283.15 254.75h-8.15a2 2 0 0 1 0-4h8.15a2.86 2.86 0 0 0 2.85-2.86 2.11 2.11 0 0 0 -2.1-2.14h-14.15a2 2 0 0 1 0-4h14.15a6.11 6.11 0 0 1 6.1 6.1 6.87 6.87 0 0 1 -6.85 6.9z" />
        <path
            d="m297 308a2 2 0 0 1 -.33-4 52 52 0 1 0 -17.34 0 2 2 0 0 1 -.66 3.94 56.05 56.05 0 1 1 18.66 0 1.84 1.84 0 0 1 -.33.06z" />
        <path
            d="m1278 389h-36a2 2 0 0 1 0-4h34v-68h-104v68h34a2 2 0 0 1 0 4h-36a2 2 0 0 1 -2-2v-72a2 2 0 0 1 2-2h108a2 2 0 0 1 2 2v72a2 2 0 0 1 -2 2z" />
        <path
            d="m1242 425h-36a2 2 0 0 1 -2-2v-72a2 2 0 0 1 2-2h36a2 2 0 0 1 2 2v72a2 2 0 0 1 -2 2zm-34-4h32v-68h-32z" />
        <path
            d="m198 263h-108a2 2 0 0 1 -2-2v-72a2 2 0 0 1 2-2h108a2 2 0 0 1 2 2v72a2 2 0 0 1 -2 2zm-106-4h104v-68h-104z" />
        <path
            d="m198 191h-108a2 2 0 0 1 -2-1.61l-9-45a2 2 0 0 1 .41-1.66 2 2 0 0 1 1.59-.73h126a2 2 0 0 1 1.55.73 2 2 0 0 1 .41 1.66l-9 45a2 2 0 0 1 -1.96 1.61zm-106.36-4h104.72l8.2-41h-121.12z" />
        <path d="m189 254h-90a2 2 0 0 1 -2-2v-54a2 2 0 0 1 2-2h90a2 2 0 0 1 2 2v54a2 2 0 0 1 -2 2zm-88-4h86v-50h-86z" />
        <path d="m108 254a2 2 0 0 1 -2-2v-54a2 2 0 0 1 4 0v54a2 2 0 0 1 -2 2z" />
        <path d="m117 254a2 2 0 0 1 -2-2v-54a2 2 0 0 1 4 0v54a2 2 0 0 1 -2 2z" />
        <path d="m171 254a2 2 0 0 1 -2-2v-54a2 2 0 0 1 4 0v54a2 2 0 0 1 -2 2z" />
        <path d="m180 254a2 2 0 0 1 -2-2v-54a2 2 0 0 1 4 0v54a2 2 0 0 1 -2 2z" />
        <path d="m126 245a2 2 0 0 1 -2-2v-45a2 2 0 0 1 4 0v45a2 2 0 0 1 -2 2z" />
        <path d="m135 245a2 2 0 0 1 -2-2v-45a2 2 0 0 1 4 0v45a2 2 0 0 1 -2 2z" />
        <path d="m144 245a2 2 0 0 1 -2-2v-45a2 2 0 0 1 4 0v45a2 2 0 0 1 -2 2z" />
        <path d="m153 245a2 2 0 0 1 -2-2v-45a2 2 0 0 1 4 0v45a2 2 0 0 1 -2 2z" />
        <path d="m162 245a2 2 0 0 1 -2-2v-45a2 2 0 0 1 4 0v45a2 2 0 0 1 -2 2z" />
        <path d="m189 209h-90a2 2 0 0 1 0-4h90a2 2 0 0 1 0 4z" />
        <path d="m189 218h-90a2 2 0 0 1 0-4h90a2 2 0 0 1 0 4z" />
        <path d="m189 227h-90a2 2 0 0 1 0-4h90a2 2 0 0 1 0 4z" />
        <path d="m189 236h-90a2 2 0 0 1 0-4h90a2 2 0 0 1 0 4z" />
        <path d="m189 245h-90a2 2 0 0 1 0-4h90a2 2 0 0 1 0 4z" />
        <path
            d="m342 425h-108a2 2 0 0 1 -2-2v-72a2 2 0 0 1 2-2h108a2 2 0 0 1 2 2v72a2 2 0 0 1 -2 2zm-106-4h104v-68h-104z" />
        <path
            d="m270 407a2 2 0 0 1 -1.41-.59l-18-18a2 2 0 0 1 0-2.82l18-18a2 2 0 0 1 2.82 2.82l-16.58 16.59 16.58 16.59a2 2 0 0 1 -1.41 3.41z" />
        <path
            d="m306 407a2 2 0 0 1 -1.41-3.41l16.58-16.59-16.58-16.59a2 2 0 0 1 2.82-2.82l18 18a2 2 0 0 1 0 2.82l-18 18a2 2 0 0 1 -1.41.59z" />
        <path d="m333 353a2 2 0 0 1 -2-2v-7h-86v7a2 2 0 0 1 -4 0v-9a2 2 0 0 1 2-2h90a2 2 0 0 1 2 2v9a2 2 0 0 1 -2 2z" />
        <path d="m324 344a2 2 0 0 1 -2-2v-7h-68v7a2 2 0 0 1 -4 0v-9a2 2 0 0 1 2-2h72a2 2 0 0 1 2 2v9a2 2 0 0 1 -2 2z" />
        <path
            d="m189 344h-18a2 2 0 0 1 -2-2v-3.08a16.29 16.29 0 0 0 -4-10.76 20 20 0 1 1 30.3-.23 17.09 17.09 0 0 0 -4.25 11v3.07a2 2 0 0 1 -2.05 2zm-16-4h14v-1.07a21.16 21.16 0 0 1 5.2-13.6 16 16 0 0 0 -14-26.23 16.16 16.16 0 0 0 -14.12 14.61 15.88 15.88 0 0 0 3.92 11.81 20.29 20.29 0 0 1 5 13.4z" />
        <path d="m189 353h-18a2 2 0 0 1 0-4h18a2 2 0 0 1 0 4z" />
        <path d="m189 362h-18a2 2 0 0 1 0-4h18a2 2 0 0 1 0 4z" />
        <path d="m180 344a2 2 0 0 1 -2-2v-18a2 2 0 0 1 4 0v18a2 2 0 0 1 -2 2z" />
        <path d="m9 488h-18a2 2 0 0 1 -2-2v-18a2 2 0 0 1 2-2h18a2 2 0 0 1 2 2v18a2 2 0 0 1 -2 2zm-16-4h14v-14h-14z" />
        <path d="m45 488h-18a2 2 0 0 1 -2-2v-18a2 2 0 0 1 2-2h18a2 2 0 0 1 2 2v18a2 2 0 0 1 -2 2zm-16-4h14v-14h-14z" />
        <path d="m81 488h-18a2 2 0 0 1 -2-2v-18a2 2 0 0 1 2-2h18a2 2 0 0 1 2 2v18a2 2 0 0 1 -2 2zm-16-4h14v-14h-14z" />
        <path d="m117 488h-18a2 2 0 0 1 -2-2v-18a2 2 0 0 1 2-2h18a2 2 0 0 1 2 2v18a2 2 0 0 1 -2 2zm-16-4h14v-14h-14z" />
        <path d="m153 488h-18a2 2 0 0 1 -2-2v-18a2 2 0 0 1 2-2h18a2 2 0 0 1 2 2v18a2 2 0 0 1 -2 2zm-16-4h14v-14h-14z" />
        <path d="m189 488h-18a2 2 0 0 1 -2-2v-18a2 2 0 0 1 2-2h18a2 2 0 0 1 2 2v18a2 2 0 0 1 -2 2zm-16-4h14v-14h-14z" />
        <path d="m225 488h-18a2 2 0 0 1 -2-2v-18a2 2 0 0 1 2-2h18a2 2 0 0 1 2 2v18a2 2 0 0 1 -2 2zm-16-4h14v-14h-14z" />
        <path d="m261 488h-18a2 2 0 0 1 -2-2v-18a2 2 0 0 1 2-2h18a2 2 0 0 1 2 2v18a2 2 0 0 1 -2 2zm-16-4h14v-14h-14z" />
        <path d="m297 488h-18a2 2 0 0 1 -2-2v-18a2 2 0 0 1 2-2h18a2 2 0 0 1 2 2v18a2 2 0 0 1 -2 2zm-16-4h14v-14h-14z" />
        <path d="m333 488h-18a2 2 0 0 1 -2-2v-18a2 2 0 0 1 2-2h18a2 2 0 0 1 2 2v18a2 2 0 0 1 -2 2zm-16-4h14v-14h-14z" />
        <path d="m369 488h-18a2 2 0 0 1 -2-2v-18a2 2 0 0 1 2-2h18a2 2 0 0 1 2 2v18a2 2 0 0 1 -2 2zm-16-4h14v-14h-14z" />
        <path d="m405 488h-18a2 2 0 0 1 -2-2v-18a2 2 0 0 1 2-2h18a2 2 0 0 1 2 2v18a2 2 0 0 1 -2 2zm-16-4h14v-14h-14z" />
        <path d="m441 488h-18a2 2 0 0 1 -2-2v-18a2 2 0 0 1 2-2h18a2 2 0 0 1 2 2v18a2 2 0 0 1 -2 2zm-16-4h14v-14h-14z" />
        <path d="m477 488h-18a2 2 0 0 1 -2-2v-18a2 2 0 0 1 2-2h18a2 2 0 0 1 2 2v18a2 2 0 0 1 -2 2zm-16-4h14v-14h-14z" />
        <path d="m513 488h-18a2 2 0 0 1 -2-2v-18a2 2 0 0 1 2-2h18a2 2 0 0 1 2 2v18a2 2 0 0 1 -2 2zm-16-4h14v-14h-14z" />
        <path d="m540 488h-9a2 2 0 0 1 -2-2v-18a2 2 0 0 1 2-2h9a2 2 0 0 1 0 4h-7v14h7a2 2 0 0 1 0 4z" />
        <path d="m27 479h-18a2 2 0 0 1 0-4h18a2 2 0 0 1 0 4z" />
        <path d="m63 479h-18a2 2 0 0 1 0-4h18a2 2 0 0 1 0 4z" />
        <path d="m99 479h-18a2 2 0 0 1 0-4h18a2 2 0 0 1 0 4z" />
        <path d="m135 479h-18a2 2 0 0 1 0-4h18a2 2 0 0 1 0 4z" />
        <path d="m171 479h-18a2 2 0 0 1 0-4h18a2 2 0 0 1 0 4z" />
        <path d="m207 479h-18a2 2 0 0 1 0-4h18a2 2 0 0 1 0 4z" />
        <path d="m243 479h-18a2 2 0 0 1 0-4h18a2 2 0 0 1 0 4z" />
        <path d="m279 479h-18a2 2 0 0 1 0-4h18a2 2 0 0 1 0 4z" />
        <path d="m315 479h-18a2 2 0 0 1 0-4h18a2 2 0 0 1 0 4z" />
        <path d="m351 479h-18a2 2 0 0 1 0-4h18a2 2 0 0 1 0 4z" />
        <path d="m387 479h-18a2 2 0 0 1 0-4h18a2 2 0 0 1 0 4z" />
        <path d="m423 479h-18a2 2 0 0 1 0-4h18a2 2 0 0 1 0 4z" />
        <path d="m459 479h-18a2 2 0 0 1 0-4h18a2 2 0 0 1 0 4z" />
        <path d="m495 479h-18a2 2 0 0 1 0-4h18a2 2 0 0 1 0 4z" />
        <path d="m531 479h-18a2 2 0 0 1 0-4h18a2 2 0 0 1 0 4z" />
        <path d="m1296 488h-9a2 2 0 0 1 -2-2v-18a2 2 0 0 1 2-2h9a2 2 0 0 1 0 4h-7v14h7a2 2 0 0 1 0 4z" />
        <path
            d="m1269 488h-18a2 2 0 0 1 -2-2v-18a2 2 0 0 1 2-2h18a2 2 0 0 1 2 2v18a2 2 0 0 1 -2 2zm-16-4h14v-14h-14z" />
        <path
            d="m1233 488h-18a2 2 0 0 1 -2-2v-18a2 2 0 0 1 2-2h18a2 2 0 0 1 2 2v18a2 2 0 0 1 -2 2zm-16-4h14v-14h-14z" />
        <path
            d="m1197 488h-18a2 2 0 0 1 -2-2v-18a2 2 0 0 1 2-2h18a2 2 0 0 1 2 2v18a2 2 0 0 1 -2 2zm-16-4h14v-14h-14z" />
        <path
            d="m1161 488h-18a2 2 0 0 1 -2-2v-18a2 2 0 0 1 2-2h18a2 2 0 0 1 2 2v18a2 2 0 0 1 -2 2zm-16-4h14v-14h-14z" />
        <path
            d="m1125 488h-18a2 2 0 0 1 -2-2v-18a2 2 0 0 1 2-2h18a2 2 0 0 1 2 2v18a2 2 0 0 1 -2 2zm-16-4h14v-14h-14z" />
        <path
            d="m1089 488h-18a2 2 0 0 1 -2-2v-18a2 2 0 0 1 2-2h18a2 2 0 0 1 2 2v18a2 2 0 0 1 -2 2zm-16-4h14v-14h-14z" />
        <path
            d="m1053 488h-18a2 2 0 0 1 -2-2v-18a2 2 0 0 1 2-2h18a2 2 0 0 1 2 2v18a2 2 0 0 1 -2 2zm-16-4h14v-14h-14z" />
        <path
            d="m1017 488h-18a2 2 0 0 1 -2-2v-18a2 2 0 0 1 2-2h18a2 2 0 0 1 2 2v18a2 2 0 0 1 -2 2zm-16-4h14v-14h-14z" />
        <path d="m981 488h-18a2 2 0 0 1 -2-2v-18a2 2 0 0 1 2-2h18a2 2 0 0 1 2 2v18a2 2 0 0 1 -2 2zm-16-4h14v-14h-14z" />
        <path d="m945 488h-18a2 2 0 0 1 -2-2v-18a2 2 0 0 1 2-2h18a2 2 0 0 1 2 2v18a2 2 0 0 1 -2 2zm-16-4h14v-14h-14z" />
        <path d="m909 488h-9a2 2 0 0 1 0-4h7v-14h-7a2 2 0 0 1 0-4h9a2 2 0 0 1 2 2v18a2 2 0 0 1 -2 2z" />
        <path d="m1287 479h-18a2 2 0 0 1 0-4h18a2 2 0 0 1 0 4z" />
        <path d="m1251 479h-18a2 2 0 0 1 0-4h18a2 2 0 0 1 0 4z" />
        <path d="m1215 479h-18a2 2 0 0 1 0-4h18a2 2 0 0 1 0 4z" />
        <path d="m1179 479h-18a2 2 0 0 1 0-4h18a2 2 0 0 1 0 4z" />
        <path d="m1143 479h-18a2 2 0 0 1 0-4h18a2 2 0 0 1 0 4z" />
        <path d="m1107 479h-18a2 2 0 0 1 0-4h18a2 2 0 0 1 0 4z" />
        <path d="m1071 479h-18a2 2 0 0 1 0-4h18a2 2 0 0 1 0 4z" />
        <path d="m1035 479h-18a2 2 0 0 1 0-4h18a2 2 0 0 1 0 4z" />
        <path d="m999 479h-18a2 2 0 0 1 0-4h18a2 2 0 0 1 0 4z" />
        <path d="m963 479h-18a2 2 0 0 1 0-4h18a2 2 0 0 1 0 4z" />
        <path d="m927 479h-18a2 2 0 0 1 0-4h18a2 2 0 0 1 0 4z" />
        <path
            d="m193.5 452h-175.5a2 2 0 0 1 -2-2v-27a2 2 0 0 1 4 0v25h173.5a11.5 11.5 0 0 0 0-23h-27a15.5 15.5 0 0 1 0-31h27a11.5 11.5 0 0 0 0-23h-13.5a2 2 0 0 1 0-4h13.5a15.5 15.5 0 0 1 0 31h-27a11.5 11.5 0 0 0 0 23h27a15.5 15.5 0 0 1 0 31z" />
        <path
            d="m288 335a2 2 0 0 1 -2-2v-7a74 74 0 0 1 2-148 2 2 0 0 1 0 4 70 70 0 0 0 0 140 2 2 0 0 1 2 2v9a2 2 0 0 1 -2 2z" />
        <path d="m288 443a2 2 0 0 1 -2-2v-18a2 2 0 0 1 4 0v18a2 2 0 0 1 -2 2z" />
        <path d="m153 317h-9a2 2 0 0 1 0-4h9a2 2 0 0 1 0 4z" />
        <path d="m216 317h-9a2 2 0 0 1 0-4h9a2 2 0 0 1 0 4z" />
        <path
            d="m324 101a20 20 0 0 1 -14.14-34.13 2 2 0 0 1 2.83 2.83 16 16 0 1 0 22.62 0 2 2 0 0 1 2.83-2.83 20 20 0 0 1 -14.14 34.13z" />
        <path d="m324 83a2 2 0 0 1 -2-2v-18a2 2 0 0 1 4 0v18a2 2 0 0 1 -2 2z" />
        <path d="m297 83h-9a2 2 0 0 1 0-4h9a2 2 0 0 1 0 4z" />
        <path d="m360 83h-9a2 2 0 0 1 0-4h9a2 2 0 0 1 0 4z" />
        <path d="m324 56a2 2 0 0 1 -2-2v-9a2 2 0 0 1 4 0v9a2 2 0 0 1 -2 2z" />
        <path d="m324 119a2 2 0 0 1 -2-2v-9a2 2 0 0 1 4 0v9a2 2 0 0 1 -2 2z" />
        <path d="m304.91 63.91a2 2 0 0 1 -1.42-.59l-6.36-6.32a2 2 0 1 1 2.87-2.87l6.36 6.36a2 2 0 0 1 -1.41 3.42z" />
        <path d="m349.46 108.46a2 2 0 0 1 -1.42-.59l-6.36-6.36a2 2 0 0 1 2.83-2.83l6.36 6.36a2 2 0 0 1 -1.41 3.42z" />
        <path d="m343.09 63.91a2 2 0 0 1 -1.41-3.42l6.32-6.36a2 2 0 1 1 2.87 2.87l-6.36 6.36a2 2 0 0 1 -1.42.55z" />
        <path d="m298.54 108.46a2 2 0 0 1 -1.41-3.42l6.36-6.36a2 2 0 0 1 2.83 2.83l-6.32 6.36a2 2 0 0 1 -1.46.59z" />
        <path d="m180 290a2 2 0 0 1 -2-2v-9a2 2 0 0 1 4 0v9a2 2 0 0 1 -2 2z" />
        <path
            d="m160.91 297.91a2 2 0 0 1 -1.42-.59l-5.78-5.79-135.71-1.53a2 2 0 0 1 -2-2v-162a2 2 0 0 1 4 0v160l134.57 1.52a2 2 0 0 1 1.39.59l6.36 6.36a2 2 0 0 1 -1.41 3.42z" />
        <path d="m205.46 342.46a2 2 0 0 1 -1.42-.59l-6.36-6.36a2 2 0 0 1 2.83-2.83l6.36 6.36a2 2 0 0 1 -1.41 3.42z" />
        <path d="m199.09 297.91a2 2 0 0 1 -1.41-3.42l6.36-6.36a2 2 0 1 1 2.83 2.83l-6.36 6.36a2 2 0 0 1 -1.42.59z" />
        <path d="m154.54 342.46a2 2 0 0 1 -1.41-3.42l6.36-6.36a2 2 0 0 1 2.83 2.83l-6.32 6.36a2 2 0 0 1 -1.46.59z" />
        <path
            d="m49.5 56a6.51 6.51 0 0 1 -6.5-6.5v-2.5h-14v2.5a6.5 6.5 0 1 1 -6.5-6.5h2.5v-14h-2.5a6.5 6.5 0 1 1 6.5-6.5v2.5h14v-2.5a6.5 6.5 0 1 1 6.5 6.5h-2.5v14h2.5a6.5 6.5 0 0 1 0 13zm-2.5-9v2.5a2.5 2.5 0 1 0 2.5-2.5zm-24.5 0a2.5 2.5 0 1 0 2.5 2.5v-2.5zm6.5-4h14v-14h-14zm18-18h2.5a2.5 2.5 0 1 0 -2.5-2.5zm-24.5-5a2.5 2.5 0 0 0 0 5h2.5v-2.5a2.5 2.5 0 0 0 -2.5-2.5z" />
        <path
            d="m1422 191h-108a2 2 0 0 1 -2-2v-108a2 2 0 0 1 2-2h108a2 2 0 0 1 2 2v108a2 2 0 0 1 -2 2zm-106-4h104v-104h-104z" />
        <path
            d="m1332 128a2 2 0 0 1 -1.41-3.41l7.58-7.59-7.58-7.59a2 2 0 0 1 2.82-2.82l9 9a2 2 0 0 1 0 2.82l-9 9a2 2 0 0 1 -1.41.59z" />
        <path d="m1368 128h-18a2 2 0 0 1 0-4h18a2 2 0 0 1 0 4z" />
        <path d="m1422 92h-108a2 2 0 0 1 0-4h108a2 2 0 0 1 0 4z" />
        <path d="m1260 20h-81a2 2 0 0 1 0-4h81a2 2 0 0 1 0 4z" />
        <path
            d="m1260 29a2 2 0 0 1 -1.41-3.41l7.58-7.59-7.58-7.59a2 2 0 0 1 2.82-2.82l9 9a2 2 0 0 1 0 2.82l-9 9a2 2 0 0 1 -1.41.59z" />
        <path
            d="m1260 65a2 2 0 0 1 -1.41-3.41l7.58-7.59-7.58-7.59a2 2 0 0 1 2.82-2.82l9 9a2 2 0 0 1 0 2.82l-9 9a2 2 0 0 1 -1.41.59z" />
        <path d="m1251 38h-81a2 2 0 0 1 0-4h81a2 2 0 0 1 0 4z" />
        <path
            d="m1170 47a2 2 0 0 1 -1.41-.59l-9-9a2 2 0 0 1 0-2.82l9-9a2 2 0 0 1 2.82 2.82l-7.58 7.59 7.58 7.59a2 2 0 0 1 -1.41 3.41z" />
        <path d="m1206 308a2 2 0 0 1 -1.41-.59l-9-9a2 2 0 0 1 2.82-2.82l9 9a2 2 0 0 1 -1.41 3.41z" />
        <path d="m1242 308a2 2 0 0 1 -1.41-3.41l9-9a2 2 0 0 1 2.82 2.82l-9 9a2 2 0 0 1 -1.41.59z" />
        <path d="m1206 308h-9a2 2 0 0 1 0-4h9a2 2 0 0 1 0 4z" />
        <path d="m1251 308h-9a2 2 0 0 1 0-4h9a2 2 0 0 1 0 4z" />
        <path
            d="m1206 452h-108a1.94 1.94 0 0 1 -.89-.21l-72-36a2 2 0 1 1 1.78-3.58l71.58 35.79h107.53a2 2 0 0 1 0 4z" />
        <path d="m1062 452h-54a2 2 0 0 1 0-4h53.53l71.58-35.79a2 2 0 1 1 1.78 3.58l-72 36a1.94 1.94 0 0 1 -.89.21z" />
        <path d="m999 452h-27a2 2 0 0 1 0-4h27a2 2 0 0 1 0 4z" />
        <path d="m963 452h-18a2 2 0 0 1 0-4h18a2 2 0 0 1 0 4z" />
        <path d="m936 452h-9a2 2 0 0 1 0-4h9a2 2 0 0 1 0 4z" />
        <path
            d="m918 452a2.2 2.2 0 0 1 -.77-.15 1.63 1.63 0 0 1 -.34-.19 1.42 1.42 0 0 1 -.3-.25 1.87 1.87 0 0 1 -.26-.3 2.21 2.21 0 0 1 -.18-.34 1.66 1.66 0 0 1 -.11-.38 1.92 1.92 0 0 1 0-.78 1.66 1.66 0 0 1 .11-.38 2.27 2.27 0 0 1 .19-.34 2.16 2.16 0 0 1 .55-.55 2.27 2.27 0 0 1 .34-.19 1.82 1.82 0 0 1 .38-.11 2 2 0 0 1 .78 0 1.58 1.58 0 0 1 .37.11 2 2 0 0 1 .35.19 1.42 1.42 0 0 1 .3.25 2 2 0 0 1 .59 1.41 1.72 1.72 0 0 1 0 .39 1.66 1.66 0 0 1 -.11.38 1.63 1.63 0 0 1 -.19.34 1.42 1.42 0 0 1 -.25.3 2 2 0 0 1 -1.45.59z" />
        <path d="m468 452h-27a2 2 0 0 1 0-4h27a2 2 0 0 1 0 4z" />
        <path d="m495 452h-18a2 2 0 0 1 0-4h18a2 2 0 0 1 0 4z" />
        <path d="m513 452h-9a2 2 0 0 1 0-4h9a2 2 0 0 1 0 4z" />
        <path
            d="m522 452a2.2 2.2 0 0 1 -.77-.15 1.63 1.63 0 0 1 -.34-.19 2.16 2.16 0 0 1 -.55-.55 1.63 1.63 0 0 1 -.19-.34 2.2 2.2 0 0 1 -.15-.77 1.72 1.72 0 0 1 0-.39 1.66 1.66 0 0 1 .11-.38 1.63 1.63 0 0 1 .19-.34 1.42 1.42 0 0 1 .25-.3 2 2 0 0 1 2.82 0 2 2 0 0 1 -1.37 3.41z" />
        <path d="m1242 452h-27a2 2 0 0 1 0-4h27a2 2 0 0 1 0 4z" />
        <path d="m1269 452h-18a2 2 0 0 1 0-4h18a2 2 0 0 1 0 4z" />
        <path d="m1287 452h-9a2 2 0 0 1 0-4h9a2 2 0 0 1 0 4z" />
        <path
            d="m1296 452a1.72 1.72 0 0 1 -.39 0 1.66 1.66 0 0 1 -.38-.11 1.63 1.63 0 0 1 -.34-.19 1.42 1.42 0 0 1 -.3-.25 2 2 0 0 1 -.59-1.45 1.72 1.72 0 0 1 0-.39 1.66 1.66 0 0 1 .11-.38 1.63 1.63 0 0 1 .19-.34 2.16 2.16 0 0 1 .55-.55 1.63 1.63 0 0 1 .34-.19 1.82 1.82 0 0 1 .38-.11 2 2 0 0 1 .78 0 1.58 1.58 0 0 1 .37.11 1.48 1.48 0 0 1 .35.19 2.16 2.16 0 0 1 .55.55 2.27 2.27 0 0 1 .19.34 1.66 1.66 0 0 1 .11.38 1.72 1.72 0 0 1 0 .39 2 2 0 0 1 -.59 1.41 1.88 1.88 0 0 1 -.64.44 2 2 0 0 1 -.69.15z" />
        <path d="m1215 326h-36a2 2 0 0 1 0-4h36a2 2 0 0 1 0 4z" />
        <path d="m1242 326h-18a2 2 0 0 1 0-4h18a2 2 0 0 1 0 4z" />
        <path d="m1260 326h-9a2 2 0 0 1 0-4h9a2 2 0 0 1 0 4z" />
        <path
            d="m1269 326a2.2 2.2 0 0 1 -.77-.15 1.63 1.63 0 0 1 -.34-.19 1.42 1.42 0 0 1 -.3-.25 2 2 0 0 1 0-2.82 2 2 0 0 1 2.82 0 2 2 0 0 1 -1.41 3.41z" />
        <path d="m1224 362h-9a2 2 0 0 1 0-4h9a2 2 0 0 1 0 4z" />
        <path
            d="m1233 362a2 2 0 0 1 -1.42-.59 2.48 2.48 0 0 1 -.25-.3 2.21 2.21 0 0 1 -.18-.34 1.66 1.66 0 0 1 -.11-.38 1.72 1.72 0 0 1 0-.39 2 2 0 0 1 .58-1.41 1.79 1.79 0 0 1 .31-.25 2.27 2.27 0 0 1 .34-.19 1.66 1.66 0 0 1 .38-.11 2 2 0 0 1 1.8.55 2 2 0 0 1 .55 1.41 2.2 2.2 0 0 1 -.15.77 1.63 1.63 0 0 1 -.19.34 1.42 1.42 0 0 1 -.25.3 1.92 1.92 0 0 1 -.65.44 1.94 1.94 0 0 1 -.76.15z" />
        <path d="m1368 362a56.06 56.06 0 0 1 -56-56 2 2 0 0 1 4 0 52 52 0 1 0 52-52 2 2 0 0 1 0-4 56 56 0 0 1 0 112z" />
        <path
            d="m1323 236h-18a2 2 0 0 1 -2-2v-27a2 2 0 0 1 2-2h9a2 2 0 0 1 1.41.59l9 9a2 2 0 0 1 .59 1.41v18a2 2 0 0 1 -2 2zm-16-4h14v-15.17l-7.83-7.83h-6.17z" />
        <path
            d="m1350 236h-18a2 2 0 0 1 -2-2v-27a2 2 0 0 1 2-2h9a2 2 0 0 1 1.41.59l9 9a2 2 0 0 1 .59 1.41v18a2 2 0 0 1 -2 2zm-16-4h14v-15.17l-7.83-7.83h-6.17z" />
        <path
            d="m1377 236h-18a2 2 0 0 1 -2-2v-27a2 2 0 0 1 2-2h9a2 2 0 0 1 1.41.59l9 9a2 2 0 0 1 .59 1.41v18a2 2 0 0 1 -2 2zm-16-4h14v-15.17l-7.83-7.83h-6.17z" />
        <path
            d="m1404 236h-18a2 2 0 0 1 -2-2v-27a2 2 0 0 1 2-2h9a2 2 0 0 1 1.41.59l9 9a2 2 0 0 1 .59 1.41v18a2 2 0 0 1 -2 2zm-16-4h14v-15.17l-7.83-7.83h-6.17z" />
        <path
            d="m1431 236h-18a2 2 0 0 1 -2-2v-27a2 2 0 0 1 2-2h9a2 2 0 0 1 1.41.59l9 9a2 2 0 0 1 .59 1.41v18a2 2 0 0 1 -2 2zm-16-4h14v-15.17l-7.83-7.83h-6.17z" />
        <path d="m1206 398h-27a2 2 0 0 1 0-4h27a2 2 0 0 1 0 4z" />
        <path d="m1206 407h-18a2 2 0 0 1 0-4h18a2 2 0 0 1 0 4z" />
        <path d="m1206 416h-9a2 2 0 0 1 0-4h9a2 2 0 0 1 0 4z" />
        <path d="m1251 416h-9a2 2 0 0 1 0-4h9a2 2 0 0 1 0 4z" />
        <path d="m1260 407h-18a2 2 0 0 1 0-4h18a2 2 0 0 1 0 4z" />
        <path d="m1269 398h-27a2 2 0 0 1 0-4h27a2 2 0 0 1 0 4z" />
        <path d="m1053 443h-36a2 2 0 0 1 0-4h36a2 2 0 0 1 0 4z" />
        <path d="m1197 272h-90a2 2 0 0 1 0-4h90a2 2 0 0 1 0 4z" />
        <path d="m1233 290h-18a2 2 0 0 1 0-4h18a2 2 0 0 1 0 4z" />
        <path d="m126 101h-18a2 2 0 0 1 0-4h18a2 2 0 0 1 0 4z" />
        <path d="m117 65h-18a2 2 0 0 1 0-4h18a2 2 0 0 1 0 4z" />
        <path d="m27 83h-36a2 2 0 0 1 -2-2 2 2 0 0 1 2-2h36a2 2 0 0 1 0 4z" />
        <path d="m54 83h-18a2 2 0 0 1 0-4h18a2 2 0 0 1 0 4z" />
        <path d="m72 83h-9a2 2 0 0 1 0-4h9a2 2 0 0 1 0 4z" />
        <path d="m99 47a2 2 0 0 1 -2-2v-36a2 2 0 0 1 4 0v36a2 2 0 0 1 -2 2z" />
        <path d="m108 38a2 2 0 0 1 -2-2v-18a2 2 0 0 1 4 0v18a2 2 0 0 1 -2 2z" />
        <path d="m117 47a2 2 0 0 1 -2-2v-18a2 2 0 0 1 4 0v18a2 2 0 0 1 -2 2z" />
        <path d="m126 47a2 2 0 0 1 -2-2l-.46-36a2 2 0 0 1 2-2 2 2 0 0 1 2 2l.46 36a2 2 0 0 1 -2 2z" />
        <path
            d="m1111.5 236a6.51 6.51 0 0 1 -6.5-6.5v-18.77a32.49 32.49 0 0 1 9-22.54v-34.19a12 12 0 0 1 12-12h35a2 2 0 0 1 0 4h-35a8 8 0 0 0 -8 8v35a2 2 0 0 1 -.59 1.41 28.57 28.57 0 0 0 -8.41 20.32v18.77a2.5 2.5 0 0 0 5 0v-13.5a2 2 0 0 1 4 0v13.5a6.51 6.51 0 0 1 -6.5 6.5z" />
        <path
            d="m1129.5 245a6.51 6.51 0 0 1 -6.5-6.5v-22.5a2 2 0 0 1 4 0v22.5a2.5 2.5 0 0 0 5 0v-22.5a2 2 0 0 1 4 0v22.5a6.51 6.51 0 0 1 -6.5 6.5z" />
        <path
            d="m1120.5 243a6.51 6.51 0 0 1 -6.5-6.5v-20.5a2 2 0 0 1 4 0v20.5a2.5 2.5 0 0 0 5 0v-20.5a2 2 0 0 1 4 0v20.5a6.51 6.51 0 0 1 -6.5 6.5z" />
        <path
            d="m1138.5 243a6.51 6.51 0 0 1 -6.5-6.5v-20.5a2 2 0 0 1 4 0v20.5a2.5 2.5 0 0 0 5 0v-29.5a2 2 0 0 1 4 0c0 2.68 2.24 7 3.33 7h.64a1 1 0 0 0 1-1v-6a15.16 15.16 0 0 0 -6.53-12.46l-5.61-3.89a2 2 0 0 1 -.83-1.65v-125a12 12 0 0 1 12-12h111a2 2 0 0 1 0 4h-111a8 8 0 0 0 -8 8v124l4.75 3.29a19.15 19.15 0 0 1 8.25 15.71v6a5 5 0 0 1 -5 5h-.64a4.86 4.86 0 0 1 -3.33-1.43v19.93a6.51 6.51 0 0 1 -6.53 6.5z" />
        <path d="m1134 362a2 2 0 0 1 -.89-.21l-54-27a2 2 0 1 1 1.78-3.58l54 27a2 2 0 0 1 -.89 3.79z" />
        <path d="m1134 344a2 2 0 0 1 -.89-.21l-36-18a2 2 0 1 1 1.78-3.58l36 18a2 2 0 0 1 -.89 3.79z" />
        <path d="m1134 326a2 2 0 0 1 -.89-.21l-18-9a2 2 0 1 1 1.78-3.58l18 9a2 2 0 0 1 -.89 3.79z" />
        <path
            d="m1134 308a2 2 0 0 1 -1.41-3.41 1.42 1.42 0 0 1 .3-.25 2.27 2.27 0 0 1 .34-.19 1.66 1.66 0 0 1 .38-.11 2 2 0 0 1 1.8.55 2 2 0 0 1 -1.41 3.41z" />
        <path d="m1368 254h-99a2 2 0 0 1 0-4h99a2 2 0 0 1 0 4z" />
        <path d="m1323 272h-36a2 2 0 0 1 0-4h36a2 2 0 0 1 0 4z" />
        <path d="m1314 290h-9a2 2 0 0 1 0-4h9a2 2 0 0 1 0 4z" />
        <path
            d="m396 452h-54a2 2 0 0 1 -2-2v-7h-104v7a2 2 0 0 1 -4 0v-9a2 2 0 0 1 2-2h108a2 2 0 0 1 2 2v7h52a34 34 0 1 0 -34-34 2 2 0 0 1 -4 0 38 38 0 1 1 38 38z" />
        <path d="m90 92a2 2 0 0 1 -2-2v-18a2 2 0 0 1 4 0v18a2 2 0 0 1 -2 2z" />
        <path d="m288 299a47 47 0 1 1 47-47 47 47 0 0 1 -47 47zm0-90a43 43 0 1 0 43 43 43 43 0 0 0 -43-43z" />
        <path
            d="m370.54 441.46a2 2 0 0 1 -1.41-.59 38 38 0 0 1 0-53.74 2 2 0 0 1 2.87 2.87 34 34 0 0 0 0 48 2 2 0 0 1 -1.42 3.42z" />
        <path d="m432 452h-36a2 2 0 0 1 0-4h36a2 2 0 0 1 0 4z" />
        <path d="m180 371a2 2 0 0 1 -2-2v-9a2 2 0 0 1 4 0v9a2 2 0 0 1 -2 2z" />
        <path d="m1206 254a2 2 0 0 1 -2-2v-27a2 2 0 0 1 4 0v27a2 2 0 0 1 -2 2z" />
        <path d="m1197 245a2 2 0 0 1 -2-2v-23a2 2 0 0 1 4 0v23a2 2 0 0 1 -2 2z" />
        <path d="m1188 236a2 2 0 0 1 -2-2v-18a2 2 0 0 1 4 0v18a2 2 0 0 1 -2 2z" />
        <path d="m1179 227a2 2 0 0 1 -2-2v-9a2 2 0 0 1 4 0v9a2 2 0 0 1 -2 2z" />
        <path
            d="m1170 218a2 2 0 0 1 -1.41-.59 1.42 1.42 0 0 1 -.25-.3 2.27 2.27 0 0 1 -.19-.34 1.82 1.82 0 0 1 -.11-.38 1.92 1.92 0 0 1 0-.78 1.58 1.58 0 0 1 .11-.37 2 2 0 0 1 .19-.35 1.42 1.42 0 0 1 .25-.3 2 2 0 0 1 1.8-.55 2.26 2.26 0 0 1 .37.11 2 2 0 0 1 .35.19 2.16 2.16 0 0 1 .55.55 2 2 0 0 1 .19.35 2.26 2.26 0 0 1 .11.37 1.92 1.92 0 0 1 0 .78 2.72 2.72 0 0 1 -.11.38 2.27 2.27 0 0 1 -.19.34 2.16 2.16 0 0 1 -.55.55 2 2 0 0 1 -.35.19 2.26 2.26 0 0 1 -.37.11 1.72 1.72 0 0 1 -.39.04z" />
        <path
            d="m383.67 434a2 2 0 0 1 -1.33-.51 2 2 0 0 1 -.34-2.49l7.48-12.29h-8.48a2 2 0 0 1 -1.23-3.58l26.67-20.67a2 2 0 0 1 2.95 2.6l-6.89 11.65h8.5a2 2 0 0 1 1.23 3.57l-27.33 21.3a2 2 0 0 1 -1.23.42zm3.18-19.33h6.15a2 2 0 0 1 1.71 3l-3.64 6 14.12-11h-6.19a2 2 0 0 1 -1.72-3l3.34-5.66z" />
        <path
            d="m1365.62 441a1.84 1.84 0 0 1 -1.54-.83l-4.77-7.14a1.85 1.85 0 0 1 3.08-2.06l3.23 6.16 8-13.3a1.85 1.85 0 1 1 3.08 2.05l-9.53 14.29a1.84 1.84 0 0 1 -1.55.83z" />
        <path d="m1368 452a20 20 0 1 1 20-20 20 20 0 0 1 -20 20zm0-36a16 16 0 1 0 16 16 16 16 0 0 0 -16-16z" />
        <path d="m1386 416a2 2 0 0 1 -1.41-3.41l18-18a2 2 0 0 1 2.82 2.82l-18 18a2 2 0 0 1 -1.41.59z" />
        <path d="m1404 470a2 2 0 0 1 -1.41-.59l-18-18a2 2 0 0 1 2.82-2.82l18 18a2 2 0 0 1 -1.41 3.41z" />
        <path d="m1350 416a2 2 0 0 1 -1.41-.59l-18-18a2 2 0 0 1 2.82-2.82l18 18a2 2 0 0 1 -1.41 3.41z" />
        <path d="m1408.5 407a2 2 0 0 1 0-4 11.5 11.5 0 1 0 -11.5-11.5 2 2 0 0 1 -4 0 15.5 15.5 0 1 1 15.5 15.5z" />
        <path
            d="m1408.5 488a15.51 15.51 0 0 1 -15.5-15.5 2 2 0 0 1 4 0 11.5 11.5 0 1 0 11.5-11.5 2 2 0 0 1 0-4 15.5 15.5 0 0 1 0 31z" />
        <path d="m1327.5 407a15.5 15.5 0 1 1 15.5-15.5 2 2 0 0 1 -4 0 11.5 11.5 0 1 0 -11.5 11.5 2 2 0 0 1 0 4z" />
        <path
            d="m1327.5 488a15.5 15.5 0 0 1 0-31 2 2 0 0 1 0 4 11.5 11.5 0 1 0 11.5 11.5 2 2 0 0 1 4 0 15.51 15.51 0 0 1 -15.5 15.5z" />
        <path d="m1332 470a2 2 0 0 1 -1.41-3.41l18-18a2 2 0 0 1 2.82 2.82l-18 18a2 2 0 0 1 -1.41.59z" />
        <path d="m1408.5 465.5a2 2 0 0 1 -2-2v-63a2 2 0 0 1 4 0v63a2 2 0 0 1 -2 2z" />
        <path d="m1327.5 465.5a2 2 0 0 1 -2-2v-63a2 2 0 0 1 4 0v63a2 2 0 0 1 -2 2z" />
        <path d="m1399.5 474.5h-63a2 2 0 0 1 0-4h63a2 2 0 0 1 0 4z" />
        <path d="m1399.5 393.5h-63a2 2 0 0 1 0-4h63a2 2 0 0 1 0 4z" />
        <path
            d="m1116 137a2 2 0 0 1 -2-2v-77.59a23.43 23.43 0 0 1 23.41-23.41h5.59a2 2 0 0 1 0 4h-5.59a19.44 19.44 0 0 0 -19.41 19.41v77.59a2 2 0 0 1 -2 2z" />
    </g>
</svg>
